<svg width="35" height="35" viewBox="0 0 35 35" fill="none" xmlns="http://www.w3.org/2000/svg">
<path d="M17.5 3.5C11.7011 3.5 7.00005 8.20101 7.00005 14V20.2752L5.76261 21.5126C5.26211 22.0131 5.1124 22.7657 5.38326 23.4197C5.65413 24.0737 6.29225 24.5 7.00005 24.5H28C28.7079 24.5 29.3459 24.0737 29.6168 23.4197C29.8877 22.7657 29.7379 22.0131 29.2374 21.5126L28 20.2752V14C28 8.20101 23.299 3.5 17.5 3.5Z" fill="#007AFC"/>
<path d="M17.5 31.5C14.6005 31.5 12.25 29.1496 12.25 26.25H22.75C22.75 29.1496 20.3996 31.5 17.5 31.5Z" fill="#007AFC"/>
</svg>
