<svg width="27" height="31" viewBox="0 0 27 31" fill="none" xmlns="http://www.w3.org/2000/svg">
<path d="M23.7083 3.83332H22.25V0.916656H19.3333V3.83332H7.66667V0.916656H4.75V3.83332H3.29167C1.67292 3.83332 0.389583 5.14582 0.389583 6.74999L0.375 27.1667C0.375 27.9402 0.682291 28.6821 1.22927 29.229C1.77625 29.776 2.51812 30.0833 3.29167 30.0833H23.7083C25.3125 30.0833 26.625 28.7708 26.625 27.1667V6.74999C26.625 5.14582 25.3125 3.83332 23.7083 3.83332ZM23.7083 27.1667H3.29167V12.5833H23.7083V27.1667ZM9.125 18.4167H6.20833V15.5H9.125V18.4167ZM14.9583 18.4167H12.0417V15.5H14.9583V18.4167ZM20.7917 18.4167H17.875V15.5H20.7917V18.4167ZM9.125 24.25H6.20833V21.3333H9.125V24.25ZM14.9583 24.25H12.0417V21.3333H14.9583V24.25ZM20.7917 24.25H17.875V21.3333H20.7917V24.25Z" fill="white"/>
</svg>
