<svg width="29" height="29" viewBox="0 0 29 29" fill="none" xmlns="http://www.w3.org/2000/svg">
<path fill-rule="evenodd" clip-rule="evenodd" d="M17.1061 2.54914C16.4428 -0.183047 12.5571 -0.183047 11.8939 2.54914C11.4654 4.3141 9.44328 5.15169 7.89228 4.20665C5.49131 2.74371 2.74371 5.49131 4.20665 7.89228C5.15169 9.44328 4.3141 11.4654 2.54914 11.8939C-0.183047 12.5571 -0.183047 16.4428 2.54914 17.1061C4.3141 17.5347 5.15169 19.5568 4.20665 21.1076C2.74371 23.5086 5.49131 26.2563 7.89229 24.7933C9.44328 23.8483 11.4654 24.6859 11.8939 26.4509C12.5571 29.183 16.4428 29.183 17.1061 26.4509C17.5347 24.6859 19.5568 23.8483 21.1076 24.7933C23.5086 26.2563 26.2563 23.5086 24.7933 21.1076C23.8483 19.5568 24.6859 17.5347 26.4509 17.1061C29.183 16.4428 29.183 12.5571 26.4509 11.8939C24.6859 11.4654 23.8483 9.44328 24.7933 7.89228C26.2563 5.49131 23.5086 2.74371 21.1076 4.20665C19.5568 5.15169 17.5347 4.3141 17.1061 2.54914ZM14.5 19.75C17.3996 19.75 19.75 17.3996 19.75 14.5C19.75 11.6005 17.3996 9.25 14.5 9.25C11.6005 9.25 9.25 11.6005 9.25 14.5C9.25 17.3996 11.6005 19.75 14.5 19.75Z" fill="white"/>
</svg>
