<svg width="20" height="20" viewBox="0 0 20 20" fill="none" xmlns="http://www.w3.org/2000/svg">
<path fill-rule="evenodd" clip-rule="evenodd" d="M9.9999 19.5999C15.3019 19.5999 19.5999 15.3019 19.5999 9.9999C19.5999 4.69797 15.3019 0.399902 9.9999 0.399902C4.69797 0.399902 0.399902 4.69797 0.399902 9.9999C0.399902 15.3019 4.69797 19.5999 9.9999 19.5999ZM6.3999 8.7999C7.06264 8.7999 7.5999 8.26264 7.5999 7.5999C7.5999 6.93717 7.06264 6.3999 6.3999 6.3999C5.73717 6.3999 5.1999 6.93717 5.1999 7.5999C5.1999 8.26264 5.73717 8.7999 6.3999 8.7999ZM14.7999 7.5999C14.7999 8.26264 14.2627 8.7999 13.5999 8.7999C12.9371 8.7999 12.3999 8.26264 12.3999 7.5999C12.3999 6.93717 12.9371 6.3999 13.5999 6.3999C14.2627 6.3999 14.7999 6.93717 14.7999 7.5999ZM14.2425 14.2424C14.7112 13.7738 14.7112 13.0141 14.2425 12.5453C13.7739 12.0767 13.0141 12.0767 12.5455 12.5453C11.1395 13.9513 8.8602 13.9513 7.45432 12.5453C6.98569 12.0767 6.22589 12.0767 5.75727 12.5453C5.28863 13.0141 5.28863 13.7738 5.75727 14.2424C8.10041 16.5856 11.8994 16.5856 14.2425 14.2424Z" fill="#F00717"/>
</svg>
