<svg width="24" height="25" viewBox="0 0 24 25" fill="none" xmlns="http://www.w3.org/2000/svg">
<path d="M5 21.5V9.5M19 3.5V7.5V3.5ZM19 21.5V11.5V21.5ZM12 3.5V15.5V3.5ZM12 21.5V19.5V21.5ZM5 3.5V5.5V3.5Z" stroke="#333333" stroke-width="2" stroke-linecap="round"/>
<path d="M17 9.5C17 10.6046 17.8954 11.5 19 11.5C20.1046 11.5 21 10.6046 21 9.5C21 8.39543 20.1046 7.5 19 7.5C17.8954 7.5 17 8.39543 17 9.5Z" stroke="#333333" stroke-width="2" stroke-linecap="round"/>
<path d="M10 17.5C10 18.6046 10.8954 19.5 12 19.5C13.1046 19.5 14 18.6046 14 17.5C14 16.3954 13.1046 15.5 12 15.5C10.8954 15.5 10 16.3954 10 17.5Z" stroke="#333333" stroke-width="2" stroke-linecap="round"/>
<path d="M3 7.5C3 8.60457 3.89543 9.5 5 9.5C6.10457 9.5 7 8.60457 7 7.5C7 6.39543 6.10457 5.5 5 5.5C3.89543 5.5 3 6.39543 3 7.5Z" stroke="#333333" stroke-width="2" stroke-linecap="round"/>
</svg>
