<svg width="24" height="24" viewBox="0 0 24 24" fill="none" xmlns="http://www.w3.org/2000/svg">
<path d="M13.1998 3.5999C13.1998 2.93717 12.6626 2.3999 11.9998 2.3999C11.3371 2.3999 10.7998 2.93717 10.7998 3.5999V4.7999C10.7998 5.46264 11.3371 5.9999 11.9998 5.9999C12.6626 5.9999 13.1998 5.46264 13.1998 4.7999V3.5999Z" fill="#FFB547"/>
<path d="M18.7881 6.90888C19.2567 6.44025 19.2567 5.68046 18.7881 5.21182C18.3195 4.7432 17.5597 4.7432 17.0911 5.21182L16.2426 6.06035C15.774 6.52898 15.774 7.28878 16.2426 7.7574C16.7112 8.22604 17.471 8.22604 17.9396 7.7574L18.7881 6.90888Z" fill="#FFB547"/>
<path d="M21.6 12C21.6 12.6628 21.0628 13.2001 20.4 13.2001H19.2C18.5372 13.2001 18 12.6628 18 12C18 11.3373 18.5372 10.8 19.2 10.8H20.4C21.0628 10.8 21.6 11.3373 21.6 12Z" fill="#FFB547"/>
<path d="M6.06035 7.7574C6.52898 8.22604 7.28878 8.22604 7.7574 7.7574C8.22604 7.28878 8.22604 6.52898 7.7574 6.06035L6.90888 5.21182C6.44025 4.7432 5.68046 4.7432 5.21182 5.21182C4.7432 5.68044 4.7432 6.44025 5.21182 6.90887L6.06035 7.7574Z" fill="#FFB547"/>
<path d="M5.9999 12C5.9999 12.6628 5.46264 13.2001 4.7999 13.2001H3.5999C2.93717 13.2001 2.3999 12.6628 2.3999 12C2.3999 11.3373 2.93717 10.8 3.5999 10.8H4.7999C5.46264 10.8 5.9999 11.3373 5.9999 12Z" fill="#FFB547"/>
<path d="M9.6001 19.2V18H14.4001V19.2C14.4001 20.5255 13.3256 21.6 12.0001 21.6C10.6746 21.6 9.6001 20.5255 9.6001 19.2Z" fill="#FFB547"/>
<path d="M14.4013 16.7999C14.4188 16.3916 14.6493 16.0244 14.9724 15.7693C16.0857 14.8903 16.8002 13.5285 16.8002 12C16.8002 9.34898 14.6511 7.19995 12.0002 7.19995C9.34923 7.19995 7.2002 9.34898 7.2002 12C7.2002 13.5285 7.91474 14.8903 9.02802 15.7693C9.35109 16.0244 9.58161 16.3916 9.59913 16.7999H14.4013Z" fill="#FFB547"/>
</svg>
