<svg width="35" height="35" viewBox="0 0 35 35" fill="none" xmlns="http://www.w3.org/2000/svg">
<path d="M15.75 8.4074C13.8999 7.50586 11.8215 7 9.625 7C7.42847 7 5.3501 7.50586 3.5 8.4074V25.9073C5.3501 25.0059 7.42847 24.5 9.625 24.5C12.545 24.5 15.2563 25.3939 17.5 26.9232C19.7437 25.3939 22.455 24.5 25.375 24.5C27.5716 24.5 29.6499 25.0059 31.5 25.9073V8.4074C29.6499 7.50586 27.5716 7 25.375 7C23.1784 7 21.1001 7.50586 19.25 8.4074V21C19.25 21.9665 18.4665 22.75 17.5 22.75C16.5335 22.75 15.75 21.9665 15.75 21V8.4074Z" fill="white"/>
</svg>
