<svg width="31" height="31" viewBox="0 0 31 31" fill="none" xmlns="http://www.w3.org/2000/svg">
<path d="M2.37501 16.9583H3.83335V27.1667C3.83335 28.7752 5.14147 30.0833 6.75001 30.0833H24.25C25.8586 30.0833 27.1667 28.7752 27.1667 27.1667V16.9583H28.625C28.9134 16.9583 29.1953 16.8727 29.4351 16.7125C29.6748 16.5522 29.8617 16.3245 29.972 16.058C30.0824 15.7916 30.1113 15.4984 30.055 15.2156C29.9988 14.9327 29.8599 14.6729 29.6561 14.469L16.5311 1.34395C16.3957 1.20841 16.235 1.10087 16.0581 1.0275C15.8812 0.954132 15.6915 0.916367 15.5 0.916367C15.3085 0.916367 15.1188 0.954132 14.9419 1.0275C14.765 1.10087 14.6043 1.20841 14.469 1.34395L1.34397 14.469C1.14008 14.6729 1.00124 14.9327 0.944997 15.2156C0.888753 15.4984 0.917632 15.7916 1.02798 16.058C1.13834 16.3245 1.32521 16.5522 1.56497 16.7125C1.80474 16.8727 2.08663 16.9583 2.37501 16.9583ZM12.5833 27.1667V19.875H18.4167V27.1667H12.5833ZM15.5 4.43708L24.25 13.1871V19.875L24.2515 27.1667H21.3333V19.875C21.3333 18.2665 20.0252 16.9583 18.4167 16.9583H12.5833C10.9748 16.9583 9.66668 18.2665 9.66668 19.875V27.1667H6.75001V13.1871L15.5 4.43708Z" fill="white"/>
</svg>
