<svg width="35" height="35" viewBox="0 0 35 35" fill="none" xmlns="http://www.w3.org/2000/svg">
<path d="M18.1893 3.64149C17.7492 3.45284 17.2509 3.45284 16.8106 3.64149L4.56064 8.89149C3.9172 9.16725 3.5 9.79995 3.5 10.5C3.5 11.2001 3.9172 11.8327 4.56064 12.1085L9.18815 14.0917C9.35643 13.9011 9.56736 13.7458 9.81064 13.6415L16.8106 10.6415C17.699 10.2608 18.7278 10.6723 19.1084 11.5607C19.4892 12.449 19.0776 13.4778 18.1893 13.8585L13.4167 15.9039L16.8106 17.3585C17.2509 17.5473 17.7492 17.5473 18.1893 17.3585L30.4393 12.1085C31.0828 11.8327 31.5 11.2001 31.5 10.5C31.5 9.79995 31.0828 9.16725 30.4393 8.89149L18.1893 3.64149Z" fill="white"/>
<path d="M5.79257 16.4443L8.75 17.7118V24.8896C8.15015 24.7536 7.53734 24.6518 6.91374 24.5865C6.09165 24.5002 5.44198 23.8506 5.35577 23.0285C5.28581 22.3612 5.25 21.6843 5.25 20.9997C5.25 19.4308 5.43797 17.9052 5.79257 16.4443Z" fill="white"/>
<path d="M16.2749 29.0019C15.0974 27.8476 13.7404 26.8773 12.25 26.1365V19.2117L15.4319 20.5755C16.7526 21.1415 18.2474 21.1415 19.5682 20.5755L29.2075 16.4443C29.5621 17.9052 29.75 19.4308 29.75 20.9997C29.75 21.6843 29.7141 22.3612 29.6443 23.0285C29.558 23.8506 28.9084 24.5002 28.0863 24.5865C24.4589 24.9668 21.1967 26.5791 18.725 29.0019C18.0446 29.669 16.9554 29.669 16.2749 29.0019Z" fill="white"/>
<path d="M10.5 31.5001C11.4665 31.5001 12.25 30.7166 12.25 29.7501V26.1365C11.1499 25.5898 9.97705 25.1681 8.75 24.8896V29.7501C8.75 30.7166 9.53351 31.5001 10.5 31.5001Z" fill="white"/>
</svg>
