<svg width="35" height="35" viewBox="0 0 35 35" fill="none" xmlns="http://www.w3.org/2000/svg">
<path d="M15.75 5.25C16.7165 5.25 17.5 6.03351 17.5 7C17.5 7.96649 16.7165 8.75 15.75 8.75H11.2248L22.2374 19.7626C22.9209 20.446 22.9209 21.5541 22.2374 22.2374C21.554 22.9208 20.446 22.9208 19.7626 22.2374L8.75 11.2249V15.75C8.75 16.7165 7.96652 17.5 7 17.5C6.03347 17.5 5.25 16.7165 5.25 15.75V7C5.25 6.03351 6.03347 5.25 7 5.25H15.75Z" fill="white"/>
<path d="M26.25 8.75C28.183 8.75 29.75 10.317 29.75 12.25V26.25C29.75 28.1831 28.183 29.75 26.25 29.75H12.25C10.3169 29.75 8.75 28.1831 8.75 26.25V21C8.75 20.0335 9.53348 19.25 10.5 19.25C11.4665 19.25 12.25 20.0335 12.25 21V26.25H26.25V12.25H21C20.0335 12.25 19.25 11.4665 19.25 10.5C19.25 9.53351 20.0335 8.75 21 8.75H26.25Z" fill="white"/>
</svg>
