<svg width="168" height="72" viewBox="0 0 168 72" fill="none" xmlns="http://www.w3.org/2000/svg">
<path fill-rule="evenodd" clip-rule="evenodd" d="M12 3.34884C17.302 3.34884 21.6 1.84951 21.6 0L23 1.23978e-05C23.5523 1.23978e-05 24 0.447728 24 1.00001V69C24 70.6569 22.6569 72 21 72H3C1.34315 72 0 70.6569 0 69V1.00001C0 0.447728 0.447715 1.23978e-05 1 1.23978e-05H2.40002C2.40004 1.84952 6.6981 3.34884 12 3.34884Z" fill="white"/>
<rect x="18" y="7" width="2" height="60" fill="#01498E"/>
<rect x="10.9092" y="10.0464" width="2.18182" height="58" fill="#01498E"/>
<path d="M4 67H20V68C20 68.5523 19.5523 69 19 69H5C4.44772 69 4 68.5523 4 68V67Z" fill="#01498E"/>
<rect x="4" y="7" width="2" height="60" fill="#01498E"/>
<path d="M38.0696 23.7904L45.0527 33.3346H54.548L46.3301 23.0269C50.0346 21.8816 52.2487 18.785 52.2487 13.1858C52.0358 6.14429 47.3094 3.30225 41.0502 3.30225H29V33.3346H36.707V23.7904H38.0696ZM36.707 17.258V10.3862H41.1779C45.9895 10.3862 45.9895 17.258 41.1779 17.258H36.707Z" fill="white"/>
<path d="M61.9826 24.8933H73.096V18.9547C73.096 13.4827 68.8806 10.9376 64.4948 10.9376C59.9813 10.9376 55.4253 13.3555 55.4253 18.8275V25.6993C55.4253 31.1289 60.0239 33.7588 64.58 33.7588C67.1348 33.7588 70.2006 33.1225 72.4573 29.9411L68.4548 26.7173C67.5606 27.7778 66.2406 28.202 65.0909 28.202C63.4303 28.202 61.9826 27.3536 61.9826 25.6993V24.8933ZM66.8793 20.1849H62.0678V18.7426C62.0678 17.3852 63.26 16.7065 64.4948 16.7065C65.6871 16.7065 66.8793 17.3004 66.8793 18.6154V20.1849Z" fill="white"/>
<path d="M82.8262 27.5657C82.1875 27.5657 81.5488 27.4384 80.8675 27.2263C80.0585 26.9294 79.2921 26.5052 78.5256 25.9538L75.3321 30.1956C77.674 32.9104 80.314 33.7588 83.2094 33.7588C87.4249 33.7588 91.3848 31.2137 91.3848 26.2083C91.3848 21.8392 87.8932 20.3969 84.6997 19.591C83.8481 19.3789 83.4223 19.1244 83.0391 18.7426C82.4856 18.1063 82.9965 17.258 83.6352 17.1307C83.763 17.0883 83.8907 17.0883 84.061 17.0883C84.3591 17.0883 84.6997 17.1307 85.1255 17.2155C85.7217 17.3428 86.5307 17.6397 87.51 18.1063L91.0016 13.7796C88.1061 11.3618 85.381 10.9376 83.3797 10.9376C78.2701 10.9376 75.6728 14.7977 75.6728 17.9791C75.6728 21.2453 76.9927 24.554 82.9114 25.3599C84.7849 25.6144 84.6572 27.4384 83.1668 27.5657H82.8262Z" fill="white"/>
<path d="M100.488 24.8933H111.601V18.9547C111.601 13.4827 107.386 10.9376 103 10.9376C98.4864 10.9376 93.9303 13.3555 93.9303 18.8275V25.6993C93.9303 31.1289 98.5289 33.7588 103.085 33.7588C105.64 33.7588 108.706 33.1225 110.962 29.9411L106.96 26.7173C106.066 27.7778 104.746 28.202 103.596 28.202C101.935 28.202 100.488 27.3536 100.488 25.6993V24.8933ZM105.384 20.1849H100.573V18.7426C100.573 17.3852 101.765 16.7065 103 16.7065C104.192 16.7065 105.384 17.3004 105.384 18.6154V20.1849Z" fill="white"/>
<path d="M123.503 10.9376C118.564 10.9376 114.646 13.5251 114.646 19.5062V33.3346H121.842V19.8455C121.842 18.6578 122.609 17.8518 123.631 17.4701C124.099 17.3428 124.567 17.258 125.036 17.258C125.163 17.258 125.291 17.258 125.419 17.3004C126.058 17.3428 126.654 17.4701 127.207 17.7246V11.489C125.334 11.0224 124.312 10.9376 123.503 10.9376Z" fill="white"/>
<path d="M139.323 21.924L138.812 26.2931H138.727L138.088 21.9664L135.32 11.3618H127.699L135.491 33.3346H141.878L149.755 11.3618H142.048L139.323 21.924Z" fill="white"/>
<path d="M158.44 19.6334C152.862 19.6334 150.137 22.6875 150.137 26.4628C150.137 31.044 153.118 33.7588 159.42 33.7588C162.017 33.7588 165.083 33.2922 167.936 32.2742V18.785C167.936 13.3979 163.763 10.9376 159.207 10.9376C156.013 10.9376 152.905 12.1253 150.861 14.8825L154.182 18.2336C155.332 17.258 156.482 16.6641 158.015 16.6641C159.207 16.6641 160.314 17.0459 160.825 18.2336C160.953 18.6154 160.995 19.0395 160.995 19.5062V19.8031C160.271 19.6758 159.122 19.6334 158.44 19.6334ZM159.633 24.257C160.058 24.257 160.484 24.3419 160.91 24.4691V28.2444C160.484 28.3716 160.016 28.4141 159.548 28.4565H159.292C158.909 28.4565 158.568 28.4141 158.27 28.3292C157.461 28.1171 156.865 27.5657 156.865 26.4204C156.865 25.063 158.1 24.3419 159.462 24.257H159.633Z" fill="white"/>
<path d="M29 62.4254C29 67.2157 32.4543 68.6976 36.3232 68.6976C38.9139 68.6976 41.5738 68.0428 43.6809 67.2501V43.9534H37.8085V50.4668C37.1522 50.26 36.4613 50.1566 35.7359 50.1566C32.1434 50.1566 29 52.569 29 56.4633V62.4254ZM36.4959 54.9125C37.014 54.9125 37.4286 55.0159 37.8085 55.1537V63.9762C37.4631 64.0796 37.0831 64.1485 36.7032 64.1485C35.7359 64.1485 34.7687 63.7005 34.7687 62.4943V56.5322C34.7687 55.4639 35.5632 54.9125 36.4959 54.9125Z" fill="white"/>
<path d="M51.8266 61.4949H60.8424V56.6701C60.8424 52.2244 57.4226 50.1566 53.8647 50.1566C50.2031 50.1566 46.507 52.121 46.507 56.5667V62.1497C46.507 66.5609 50.2376 68.6976 53.9338 68.6976C56.0064 68.6976 58.4935 68.1806 60.3243 65.5959L57.0772 62.9768C56.3518 63.8383 55.281 64.183 54.3483 64.183C53.0011 64.183 51.8266 63.4937 51.8266 62.1497V61.4949ZM55.7991 57.6695H51.8957V56.4978C51.8957 55.395 52.8629 54.8436 53.8647 54.8436C54.8319 54.8436 55.7991 55.326 55.7991 56.3944V57.6695Z" fill="white"/>
<path d="M81.1466 43.9534H75.516L66.9838 68.3529H73.6162L75.1361 63.4592H81.6647L83.2537 68.3529H89.8861L81.1466 43.9534ZM76.5178 57.9797L78.314 50.8459H78.4868L80.1794 57.9797H76.5178Z" fill="white"/>
<path d="M99.0592 68.6976C101.304 68.6976 103.688 68.1806 105.519 67.2501V50.5013H99.681V63.3903C99.3355 63.5282 98.9556 63.5971 98.5756 63.5971C97.6429 63.5971 96.7448 63.1491 96.7448 61.9429V50.5013H90.9415V61.9773C90.9415 67.0778 94.8104 68.6976 99.0592 68.6976Z" fill="white"/>
<path d="M108.617 61.9084C108.617 66.2507 111.346 68.6976 115.111 68.6976C115.768 68.6976 116.389 68.5942 117.08 68.4219V63.3558C116.769 63.4248 116.458 63.4592 116.217 63.4592C114.869 63.4592 114.455 62.7011 114.455 61.8395V43.9534H108.617V61.9084Z" fill="white"/>
<path d="M124.85 57.2215C120.325 57.2215 118.114 59.7028 118.114 62.77C118.114 66.4919 120.532 68.6976 125.644 68.6976C127.751 68.6976 130.239 68.3185 132.553 67.4914V56.5322C132.553 52.1555 129.168 50.1566 125.472 50.1566C122.881 50.1566 120.359 51.1216 118.701 53.3617L121.395 56.0842C122.328 55.2916 123.261 54.8091 124.504 54.8091C125.472 54.8091 126.37 55.1193 126.784 56.0842C126.888 56.3944 126.922 56.739 126.922 57.1181V57.3593C126.335 57.256 125.402 57.2215 124.85 57.2215ZM125.817 60.9779C126.162 60.9779 126.508 61.0469 126.853 61.1502V64.2174C126.508 64.3208 126.128 64.3553 125.748 64.3897H125.541C125.23 64.3897 124.953 64.3553 124.712 64.2863C124.055 64.114 123.572 63.666 123.572 62.7355C123.572 61.6327 124.573 61.0469 125.679 60.9779H125.817Z" fill="white"/>
<path d="M140.926 63.666C140.408 63.666 139.89 63.5626 139.337 63.3903C138.681 63.1491 138.059 62.8044 137.437 62.3564L134.847 65.8027C136.746 68.0083 138.888 68.6976 141.237 68.6976C144.657 68.6976 147.869 66.6298 147.869 62.5632C147.869 59.0136 145.037 57.8418 142.446 57.187C141.755 57.0147 141.41 56.8079 141.099 56.4978C140.65 55.9808 141.064 55.2916 141.583 55.1882C141.686 55.1537 141.79 55.1537 141.928 55.1537C142.17 55.1537 142.446 55.1882 142.792 55.2571C143.275 55.3605 143.931 55.6017 144.726 55.9808L147.558 52.4656C145.21 50.5013 142.999 50.1566 141.375 50.1566C137.23 50.1566 135.123 53.2928 135.123 55.8775C135.123 58.5311 136.194 61.2192 140.995 61.874C142.515 62.0807 142.412 63.5626 141.203 63.666H140.926Z" fill="white"/>
</svg>
