<svg width="31" height="31" viewBox="0 0 31 31" fill="none" xmlns="http://www.w3.org/2000/svg">
<path d="M16.9587 8.20832H14.042V14.0417H8.20866V16.9583H14.042V22.7917H16.9587V16.9583H22.792V14.0417H16.9587V8.20832ZM15.5003 0.916656C7.46491 0.916656 0.916992 7.46457 0.916992 15.5C0.916992 23.5354 7.46491 30.0833 15.5003 30.0833C23.5357 30.0833 30.0837 23.5354 30.0837 15.5C30.0837 7.46457 23.5357 0.916656 15.5003 0.916656ZM15.5003 27.1667C9.06908 27.1667 3.83366 21.9312 3.83366 15.5C3.83366 9.06874 9.06908 3.83332 15.5003 3.83332C21.9316 3.83332 27.167 9.06874 27.167 15.5C27.167 21.9312 21.9316 27.1667 15.5003 27.1667Z" fill="white"/>
</svg>
