<svg width="24" height="25" viewBox="0 0 24 25" fill="none" xmlns="http://www.w3.org/2000/svg">
<path fill-rule="evenodd" clip-rule="evenodd" d="M10.7996 2.90002C10.3451 2.90002 9.92957 3.15682 9.72629 3.56337L8.85797 5.30002H4.79961C4.13687 5.30002 3.59961 5.83729 3.59961 6.50002C3.59961 7.16276 4.13687 7.70002 4.79961 7.70002V19.7C4.79961 21.0255 5.87413 22.1 7.19961 22.1H16.7996C18.1251 22.1 19.1996 21.0255 19.1996 19.7V7.70002C19.8624 7.70002 20.3996 7.16276 20.3996 6.50002C20.3996 5.83729 19.8624 5.30002 19.1996 5.30002H15.1412L14.2729 3.56337C14.0696 3.15682 13.6542 2.90002 13.1996 2.90002H10.7996ZM8.39961 10.1C8.39961 9.43729 8.93687 8.90002 9.59961 8.90002C10.2623 8.90002 10.7996 9.43729 10.7996 10.1V17.3C10.7996 17.9628 10.2623 18.5 9.59961 18.5C8.93687 18.5 8.39961 17.9628 8.39961 17.3V10.1ZM14.3996 8.90002C13.7368 8.90002 13.1996 9.43729 13.1996 10.1V17.3C13.1996 17.9628 13.7368 18.5 14.3996 18.5C15.0624 18.5 15.5996 17.9628 15.5996 17.3V10.1C15.5996 9.43729 15.0624 8.90002 14.3996 8.90002Z" fill="#F00717"/>
</svg>
