<svg width="42" height="43" viewBox="0 0 42 43" fill="none" xmlns="http://www.w3.org/2000/svg">
<g opacity="0.5">
<path d="M27.125 25H25.7425L25.2525 24.5275C27.0268 22.4695 28.0019 19.8422 28 17.125C28 14.8752 27.3329 12.676 26.083 10.8054C24.8331 8.93478 23.0565 7.47682 20.978 6.61588C18.8995 5.75493 16.6124 5.52967 14.4059 5.96857C12.1993 6.40748 10.1725 7.49084 8.58167 9.08167C6.99084 10.6725 5.90748 12.6993 5.46857 14.9059C5.02967 17.1124 5.25493 19.3995 6.11588 21.478C6.97682 23.5565 8.43478 25.3331 10.3054 26.583C12.176 27.8329 14.3752 28.5 16.625 28.5C19.4425 28.5 22.0325 27.4675 24.0275 25.7525L24.5 26.2425V27.625L33.25 36.3575L35.8575 33.75L27.125 25ZM16.625 25C12.2675 25 8.75001 21.4825 8.75001 17.125C8.75001 12.7675 12.2675 9.25001 16.625 9.25001C20.9825 9.25001 24.5 12.7675 24.5 17.125C24.5 21.4825 20.9825 25 16.625 25Z" fill="#333333"/>
</g>
</svg>
