<svg width="29" height="31" viewBox="0 0 29 31" fill="none" xmlns="http://www.w3.org/2000/svg">
<path d="M17.1543 30.0834H11.8459C11.5133 30.0834 11.1907 29.9698 10.9316 29.7613C10.6724 29.5528 10.4923 29.262 10.4211 28.9371L9.82759 26.1896C9.03581 25.8427 8.28502 25.4088 7.58905 24.8961L4.9101 25.7492C4.593 25.8503 4.25086 25.8399 3.94048 25.7197C3.6301 25.5996 3.37017 25.3769 3.20385 25.0886L0.543846 20.4934C0.379266 20.2048 0.317487 19.8689 0.368616 19.5407C0.419745 19.2125 0.580755 18.9113 0.825304 18.6865L2.90343 16.7906C2.80892 15.9319 2.80892 15.0653 2.90343 14.2065L0.825304 12.315C0.580408 12.0901 0.41918 11.7887 0.368042 11.4601C0.316905 11.1316 0.378893 10.7954 0.543846 10.5067L3.19801 5.90856C3.36434 5.62027 3.62427 5.39755 3.93465 5.27738C4.24502 5.15721 4.58717 5.14682 4.90426 5.24794L7.58322 6.10106C7.93905 5.83856 8.30947 5.59356 8.69155 5.3719C9.06051 5.16481 9.43968 4.97669 9.82759 4.80898L10.4226 2.0644C10.4934 1.73948 10.6732 1.44852 10.9321 1.23978C11.1909 1.03103 11.5134 0.917037 11.8459 0.916687H17.1543C17.4868 0.917037 17.8093 1.03103 18.0681 1.23978C18.327 1.44852 18.5068 1.73948 18.5776 2.0644L19.1784 4.81044C19.9692 5.15937 20.7198 5.59309 21.417 6.10398L24.0974 5.25085C24.4143 5.15011 24.7561 5.16069 25.0662 5.28084C25.3762 5.40099 25.6359 5.6235 25.8022 5.91148L28.4563 10.5096C28.7947 11.1031 28.678 11.8542 28.1749 12.3165L26.0968 14.2123C26.1913 15.0711 26.1913 15.9377 26.0968 16.7965L28.1749 18.6923C28.678 19.1561 28.7947 19.9056 28.4563 20.4992L25.8022 25.0973C25.6359 25.3856 25.3759 25.6083 25.0655 25.7285C24.7552 25.8487 24.413 25.8591 24.0959 25.7579L21.417 24.9048C20.7215 25.4172 19.9712 25.8506 19.1799 26.1969L18.5776 28.9371C18.5065 29.2618 18.3266 29.5524 18.0677 29.7608C17.8089 29.9693 17.4866 30.0831 17.1543 30.0834ZM14.4943 9.66669C12.9472 9.66669 11.4634 10.2813 10.3695 11.3752C9.27551 12.4692 8.66093 13.9529 8.66093 15.5C8.66093 17.0471 9.27551 18.5308 10.3695 19.6248C11.4634 20.7188 12.9472 21.3334 14.4943 21.3334C16.0414 21.3334 17.5251 20.7188 18.6191 19.6248C19.713 18.5308 20.3276 17.0471 20.3276 15.5C20.3276 13.9529 19.713 12.4692 18.6191 11.3752C17.5251 10.2813 16.0414 9.66669 14.4943 9.66669Z" fill="white"/>
</svg>
