<svg width="16" height="20" viewBox="0 0 16 20" fill="none" xmlns="http://www.w3.org/2000/svg">
<path fill-rule="evenodd" clip-rule="evenodd" d="M3.1998 0.400391C1.87432 0.400391 0.799805 1.47491 0.799805 2.80039V17.2004C0.799805 18.5259 1.87432 19.6004 3.1998 19.6004H12.7998C14.1253 19.6004 15.1998 18.5259 15.1998 17.2004V6.89744C15.1998 6.26093 14.947 5.65047 14.4968 5.20039L10.3998 1.10334C9.94969 0.653243 9.33924 0.400391 8.70276 0.400391H3.1998ZM9.19981 7.60039C9.19981 6.93765 8.66256 6.40039 7.9998 6.40039C7.33707 6.40039 6.7998 6.93765 6.7998 7.60039V10.0004H4.3998C3.73707 10.0004 3.1998 10.5376 3.1998 11.2004C3.1998 11.8631 3.73707 12.4004 4.3998 12.4004H6.7998V14.8004C6.7998 15.4632 7.33706 16.0004 7.9998 16.0004C8.66256 16.0004 9.19981 15.4632 9.19981 14.8004V12.4004H11.5998C12.2626 12.4004 12.7998 11.8631 12.7998 11.2004C12.7998 10.5376 12.2626 10.0004 11.5998 10.0004H9.19981V7.60039Z" fill="#007AFC"/>
</svg>
