<svg width="24" height="25" viewBox="0 0 24 25" fill="none" xmlns="http://www.w3.org/2000/svg">
<path d="M5 13.5H16.17L11.29 18.38C10.9 18.77 10.9 19.41 11.29 19.8C11.68 20.19 12.31 20.19 12.7 19.8L19.29 13.21C19.3827 13.1175 19.4563 13.0076 19.5064 12.8866C19.5566 12.7657 19.5824 12.636 19.5824 12.505C19.5824 12.374 19.5566 12.2444 19.5064 12.1234C19.4563 12.0024 19.3827 11.8925 19.29 11.8L12.71 5.2C12.6174 5.10742 12.5075 5.03398 12.3865 4.98388C12.2656 4.93377 12.1359 4.90798 12.005 4.90798C11.8741 4.90798 11.7444 4.93377 11.6235 4.98388C11.5025 5.03398 11.3926 5.10742 11.3 5.2C11.2074 5.29258 11.134 5.40249 11.0839 5.52346C11.0338 5.64442 11.008 5.77407 11.008 5.905C11.008 6.03593 11.0338 6.16558 11.0839 6.28655C11.134 6.40751 11.2074 6.51742 11.3 6.61L16.17 11.5H5C4.45 11.5 4 11.95 4 12.5C4 13.05 4.45 13.5 5 13.5Z" fill="white"/>
</svg>
