<svg width="35" height="35" viewBox="0 0 35 35" fill="none" xmlns="http://www.w3.org/2000/svg">
<path d="M19.25 15.75C19.25 13.817 17.683 12.25 15.75 12.25C13.8169 12.25 12.25 13.817 12.25 15.75C12.25 17.6831 13.8169 19.25 15.75 19.25C16.717 19.25 17.5896 18.8601 18.2249 18.2248C18.8602 17.5896 19.25 16.717 19.25 15.75Z" fill="white"/>
<path fill-rule="evenodd" clip-rule="evenodd" d="M17.5 31.5C9.76797 31.5 3.5 25.232 3.5 17.5C3.5 9.76801 9.76797 3.5 17.5 3.5C25.232 3.5 31.5 9.76801 31.5 17.5C31.5 25.232 25.232 31.5 17.5 31.5ZM15.75 8.75C19.616 8.75 22.75 11.884 22.75 15.75C22.75 17.0474 22.396 18.2637 21.7806 19.3057L25.7374 23.2626C26.4209 23.9459 26.4209 25.0541 25.7374 25.7374C25.054 26.4208 23.946 26.4208 23.2626 25.7374L19.3057 21.7805C18.2637 22.396 17.0475 22.75 15.75 22.75C11.8841 22.75 8.75 19.6159 8.75 15.75C8.75 11.884 11.8841 8.75 15.75 8.75Z" fill="white"/>
</svg>
