<svg width="29" height="29" viewBox="0 0 29 29" fill="none" xmlns="http://www.w3.org/2000/svg">
<path fill-rule="evenodd" clip-rule="evenodd" d="M14.5 28.5C22.232 28.5 28.5 22.232 28.5 14.5C28.5 6.76801 22.232 0.5 14.5 0.5C6.76801 0.5 0.5 6.76801 0.5 14.5C0.5 22.232 6.76801 28.5 14.5 28.5ZM12.2374 9.76256C11.554 9.07915 10.446 9.07915 9.76256 9.76256C9.07915 10.446 9.07915 11.554 9.76256 12.2374L12.0251 14.5L9.76256 16.7626C9.07915 17.4459 9.07915 18.554 9.76256 19.2374C10.446 19.9208 11.554 19.9208 12.2374 19.2374L14.5 16.9748L16.7626 19.2374C17.4459 19.9208 18.554 19.9208 19.2374 19.2374C19.9208 18.554 19.9208 17.4459 19.2374 16.7626L16.9748 14.5L19.2374 12.2374C19.9208 11.554 19.9208 10.446 19.2374 9.76256C18.554 9.07915 17.4459 9.07915 16.7626 9.76256L14.5 12.0251L12.2374 9.76256Z" fill="#F00717"/>
</svg>
